<svg width="18" height="18" viewBox="0 0 18 18" fill="none" xmlns="http://www.w3.org/2000/svg">
<path d="M9 9C11.0711 9 12.75 7.32107 12.75 5.25C12.75 3.17893 11.0711 1.5 9 1.5C6.92893 1.5 5.25 3.17893 5.25 5.25C5.25 7.32107 6.92893 9 9 9Z" stroke="url(#paint0_linear_35_3261)" stroke-width="1.5" stroke-linecap="round" stroke-linejoin="round"/>
<path d="M2.5575 16.5C2.5575 13.5975 5.44499 11.25 8.99999 11.25C9.71999 11.25 10.4175 11.3475 11.07 11.5275" stroke="url(#paint1_linear_35_3261)" stroke-width="1.5" stroke-linecap="round" stroke-linejoin="round"/>
<path d="M16.5 13.5C16.5 13.74 16.47 13.9725 16.41 14.1975C16.3425 14.4975 16.2225 14.79 16.065 15.045C15.5475 15.915 14.595 16.5 13.5 16.5C12.7275 16.5 12.03 16.2075 11.505 15.7275C11.28 15.5325 11.085 15.3 10.935 15.045C10.6575 14.595 10.5 14.0625 10.5 13.5C10.5 12.69 10.8225 11.9475 11.3475 11.4075C11.895 10.845 12.66 10.5 13.5 10.5C14.385 10.5 15.1875 10.8825 15.7275 11.4975C16.2075 12.03 16.5 12.735 16.5 13.5Z" stroke="url(#paint2_linear_35_3261)" stroke-width="1.5" stroke-miterlimit="10" stroke-linecap="round" stroke-linejoin="round"/>
<path d="M14.6175 13.4851H12.3825" stroke="url(#paint3_linear_35_3261)" stroke-miterlimit="10" stroke-linecap="round" stroke-linejoin="round"/>
<path d="M13.5 12.3901V14.6326" stroke="url(#paint4_linear_35_3261)" stroke-miterlimit="10" stroke-linecap="round" stroke-linejoin="round"/>
<defs>
<linearGradient id="paint0_linear_35_3261" x1="5.25" y1="1.5" x2="10.9352" y2="9.64752" gradientUnits="userSpaceOnUse">
<stop stop-color="#4089E7"/>
<stop offset="1" stop-color="#56EBC6"/>
</linearGradient>
<linearGradient id="paint1_linear_35_3261" x1="2.5575" y1="11.25" x2="5.63668" y2="18.4051" gradientUnits="userSpaceOnUse">
<stop stop-color="#4089E7"/>
<stop offset="1" stop-color="#56EBC6"/>
</linearGradient>
<linearGradient id="paint2_linear_35_3261" x1="10.5" y1="10.5" x2="15.0482" y2="17.018" gradientUnits="userSpaceOnUse">
<stop stop-color="#4089E7"/>
<stop offset="1" stop-color="#56EBC6"/>
</linearGradient>
<linearGradient id="paint3_linear_35_3261" x1="12.3825" y1="13.4851" x2="12.842" y2="14.9569" gradientUnits="userSpaceOnUse">
<stop stop-color="#4089E7"/>
<stop offset="1" stop-color="#56EBC6"/>
</linearGradient>
<linearGradient id="paint4_linear_35_3261" x1="13.5" y1="12.3901" x2="15.1436" y2="13.4405" gradientUnits="userSpaceOnUse">
<stop stop-color="#4089E7"/>
<stop offset="1" stop-color="#56EBC6"/>
</linearGradient>
</defs>
</svg>
