<svg width="20" height="20" viewBox="0 0 20 20" fill="none" xmlns="http://www.w3.org/2000/svg">
<path d="M17.7461 1.66797H15.832V0.585938C15.832 0.261719 15.5703 0 15.2461 0C14.9219 0 14.6602 0.261719 14.6602 0.585938V1.66797H5.41797V0.585938C5.41797 0.261719 5.15625 0 4.83203 0C4.50781 0 4.24609 0.261719 4.24609 0.585938V1.66797H2.33203C1.08984 1.66797 0.078125 2.67969 0.078125 3.92188V17.6719C0.078125 18.9141 1.08984 19.9258 2.33203 19.9258H17.7461C18.9883 19.9258 20 18.9141 20 17.6719V3.92188C20 2.67578 18.9883 1.66797 17.7461 1.66797ZM2.33203 2.83984H17.7461C18.3438 2.83984 18.8281 3.32422 18.8281 3.92188V5.06641H1.25V3.92188C1.25 3.32422 1.73438 2.83984 2.33203 2.83984ZM17.7461 18.75H2.33203C1.73438 18.75 1.25 18.2656 1.25 17.668V6.23828H18.8281V17.6719C18.8281 18.2656 18.3438 18.75 17.7461 18.75Z" fill="#008CEF"/>
<path d="M14.0195 16.6523C13.6094 16.6523 13.2773 16.3203 13.2773 15.9102V13.8281C13.2773 13.418 13.6094 13.0859 14.0195 13.0859H16.1016C16.5117 13.0859 16.8438 13.418 16.8438 13.8281V15.9102C16.8438 16.3203 16.5117 16.6523 16.1016 16.6523H14.0195ZM14.4883 14.2539C14.4453 14.2539 14.4102 14.2891 14.4102 14.332V15.3594C14.4102 15.4023 14.4453 15.4375 14.4883 15.4375H15.5547C15.5977 15.4375 15.6328 15.4023 15.6328 15.3594V14.332C15.6328 14.2891 15.5977 14.2539 15.5547 14.2539H14.4883Z" fill="#008CEF"/>
<path d="M3.97656 16.6523C3.56641 16.6523 3.23438 16.3203 3.23438 15.9102V13.8281C3.23438 13.418 3.56641 13.0859 3.97656 13.0859H6.05859C6.46875 13.0859 6.80078 13.418 6.80078 13.8281V15.9102C6.80078 16.3203 6.46875 16.6523 6.05859 16.6523H3.97656ZM4.44531 14.2539C4.40234 14.2539 4.36719 14.2891 4.36719 14.332V15.3594C4.36719 15.4023 4.40234 15.4375 4.44531 15.4375H5.51172C5.55469 15.4375 5.58984 15.4023 5.58984 15.3594V14.332C5.58984 14.2891 5.55469 14.2539 5.51172 14.2539H4.44531Z" fill="#008CEF"/>
<path d="M8.84375 16.6523C8.43359 16.6523 8.10156 16.3203 8.10156 15.9102V13.8281C8.10156 13.418 8.43359 13.0859 8.84375 13.0859H10.9258C11.3359 13.0859 11.668 13.418 11.668 13.8281V15.9102C11.668 16.3203 11.3359 16.6523 10.9258 16.6523H8.84375ZM9.3125 14.2539C9.26953 14.2539 9.23438 14.2891 9.23438 14.332V15.3594C9.23438 15.4023 9.26953 15.4375 9.3125 15.4375H10.3789C10.4219 15.4375 10.457 15.4023 10.457 15.3594V14.332C10.457 14.2891 10.4219 14.2539 10.3789 14.2539H9.3125Z" fill="#008CEF"/>
<path d="M14.0195 11.9023C13.6094 11.9023 13.2773 11.5703 13.2773 11.1602V9.07812C13.2773 8.66797 13.6094 8.33594 14.0195 8.33594H16.1016C16.5117 8.33594 16.8438 8.66797 16.8438 9.07812V11.1602C16.8438 11.5703 16.5117 11.9023 16.1016 11.9023H14.0195ZM14.4883 9.50781C14.4453 9.50781 14.4102 9.54297 14.4102 9.58594V10.6133C14.4102 10.6563 14.4453 10.6914 14.4883 10.6914H15.5547C15.5977 10.6914 15.6328 10.6563 15.6328 10.6133V9.58594C15.6328 9.54297 15.5977 9.50781 15.5547 9.50781H14.4883Z" fill="#008CEF"/>
<path d="M3.97656 11.9023C3.56641 11.9023 3.23438 11.5703 3.23438 11.1602V9.07812C3.23438 8.66797 3.56641 8.33594 3.97656 8.33594H6.05859C6.46875 8.33594 6.80078 8.66797 6.80078 9.07812V11.1602C6.80078 11.5703 6.46875 11.9023 6.05859 11.9023H3.97656ZM4.44531 9.50781C4.40234 9.50781 4.36719 9.54297 4.36719 9.58594V10.6133C4.36719 10.6563 4.40234 10.6914 4.44531 10.6914H5.51172C5.55469 10.6914 5.58984 10.6563 5.58984 10.6133V9.58594C5.58984 9.54297 5.55469 9.50781 5.51172 9.50781H4.44531Z" fill="#008CEF"/>
<path d="M8.84375 11.9023C8.43359 11.9023 8.10156 11.5703 8.10156 11.1602V9.07812C8.10156 8.66797 8.43359 8.33594 8.84375 8.33594H10.9258C11.3359 8.33594 11.668 8.66797 11.668 9.07812V11.1602C11.668 11.5703 11.3359 11.9023 10.9258 11.9023H8.84375ZM9.3125 9.50781C9.26953 9.50781 9.23438 9.54297 9.23438 9.58594V10.6133C9.23438 10.6563 9.26953 10.6914 9.3125 10.6914H10.3789C10.4219 10.6914 10.457 10.6563 10.457 10.6133V9.58594C10.457 9.54297 10.4219 9.50781 10.3789 9.50781H9.3125Z" fill="#008CEF"/>
</svg>
