<svg width="16" height="16" viewBox="0 0 16 16" fill="none" xmlns="http://www.w3.org/2000/svg">
<path d="M14.1378 2.98637C14.7152 3.56378 14.7247 4.49698 14.1591 5.08597L8.74224 10.7271C8.46695 11.0137 8.08913 11.1795 7.69176 11.1878L5.41644 11.2355L5.46449 8.94497C5.47264 8.55664 5.63111 8.1866 5.90655 7.91274L11.4436 2.40735C12.0298 1.82442 12.9773 1.82578 13.5619 2.41038L14.1378 2.98637Z" fill="#4089E7"/>
<path opacity="0.3" d="M8.59967 1.33325C8.96786 1.33325 9.26634 1.63173 9.26634 1.99992C9.26634 2.36811 8.96786 2.66659 8.59967 2.66659H3.99967C3.26329 2.66659 2.66634 3.26354 2.66634 3.99992V11.9999C2.66634 12.7363 3.26329 13.3333 3.99967 13.3333H11.9997C12.7361 13.3333 13.333 12.7363 13.333 11.9999V8.66659C13.333 8.2984 13.6315 7.99992 13.9997 7.99992C14.3679 7.99992 14.6663 8.2984 14.6663 8.66659V11.9999C14.6663 13.4727 13.4724 14.6666 11.9997 14.6666H3.99967C2.52692 14.6666 1.33301 13.4727 1.33301 11.9999V3.99992C1.33301 2.52716 2.52692 1.33325 3.99967 1.33325H8.59967Z" fill="#4089E7"/>
</svg>
