<svg width="16" height="16" viewBox="0 0 16 16" fill="none" xmlns="http://www.w3.org/2000/svg">
<path d="M4.98633 12.2332L7.05299 13.8331C7.31966 14.0998 7.91966 14.2331 8.31966 14.2331H10.853C11.653 14.2331 12.5197 13.6331 12.7197 12.8331L14.3197 7.96648C14.653 7.03315 14.053 6.23315 13.053 6.23315H10.3863C9.98633 6.23315 9.65299 5.89982 9.71966 5.43315L10.053 3.29982C10.1863 2.69982 9.78633 2.03315 9.18633 1.83315C8.65299 1.63315 7.98633 1.89982 7.71966 2.29982L4.98633 6.36648" stroke="#4089E7" stroke-width="1.5" stroke-miterlimit="10"/>
<path d="M1.58691 12.2331V5.69977C1.58691 4.76644 1.98691 4.43311 2.92025 4.43311H3.58691C4.52025 4.43311 4.92025 4.76644 4.92025 5.69977V12.2331C4.92025 13.1664 4.52025 13.4998 3.58691 13.4998H2.92025C1.98691 13.4998 1.58691 13.1664 1.58691 12.2331Z" stroke="#4089E7" stroke-width="1.5" stroke-linecap="round" stroke-linejoin="round"/>
</svg>
