<svg width="388" height="320" viewBox="0 0 388 320" fill="none" xmlns="http://www.w3.org/2000/svg">
<path d="M317.5 154.001C317.4 154.001 317.3 154.001 317.1 154.001C290.5 151.801 272.1 129.101 271.4 128.101C269.9 126.201 270.2 123.401 272.1 121.801C274 120.301 276.8 120.601 278.4 122.501C278.6 122.801 294.3 142.101 316 144.901C323 137.901 329 119.401 328.3 113.801C328.3 113.701 328.3 113.701 328.3 113.601C328.2 111.801 327.8 105.601 329.6 102.001C330.7 99.801 333.3 98.801 335.6 99.901C337.8 101.001 338.8 103.601 337.7 105.901C337.3 106.801 337.1 110.101 337.3 112.901C338.3 122.101 330.3 145.301 320.3 153.101C319.4 153.601 318.5 154.001 317.5 154.001Z" fill="#023E8A"/>
<path d="M105.7 129.7C97.8 129.7 75.3 127.8 57.1 107.4C55.7 105.8 55.6 103.5 56.8 101.8C64 92.0999 76.8 69.1999 78.7 61.6999C77.9 60.2999 76.4 58.1999 74.6 57.3999C73.2 56.6999 72.2 55.3999 72.1 53.7999L71.4 46.4999C71.2 43.9999 73 41.8999 75.4 41.5999C77.9 41.3999 80 43.0999 80.3 45.5999L80.8 50.6999C85.2 53.7999 87.3 58.6999 87.6 59.2999C87.9 59.9999 88 60.7999 87.9 61.5999C87 69.4999 74.1 92.4999 66.2 104.1C84.7 122.5 106.8 120.8 107.8 120.8C110.2 120.6 112.4 122.4 112.6 124.8C112.8 127.3 111 129.4 108.6 129.6C108.4 129.6 107.4 129.7 105.7 129.7Z" fill="#023E8A"/>
<path d="M249.7 307.001H237.7C236.3 307.001 235 306.301 234.1 305.201C233.3 304.101 233 302.601 233.4 301.301C236.5 290.101 238.1 280.901 239.2 266.601C235 246.701 231 228.401 230.9 228.201C230.4 225.801 231.9 223.401 234.3 222.901C236.7 222.401 239.1 223.901 239.6 226.301C239.6 226.501 243.7 245.201 248 265.401C248.1 265.801 248.1 266.301 248.1 266.701C247.1 279.601 245.8 288.501 243.4 298.101H249.6C252.1 298.101 254.1 300.101 254.1 302.601C254.1 305.101 252.2 307.001 249.7 307.001Z" fill="#023E8A"/>
<path d="M157.2 307.001H150.4C149.1 307.001 147.9 306.401 147 305.501C146.2 304.501 145.8 303.201 145.9 302.001C147 293.801 152.9 278.901 159.2 263.901C161.4 244.101 163.3 227.101 163.3 226.901C163.6 224.401 165.8 222.701 168.2 222.901C170.7 223.201 172.4 225.401 172.2 227.801C172.2 228.001 170.3 245.401 168 265.501C168 265.901 167.8 266.301 167.7 266.701C163.3 277.301 158.2 289.801 155.9 298.101H157.1C159.6 298.101 161.6 300.101 161.6 302.601C161.6 305.101 159.7 307.001 157.2 307.001Z" fill="#023E8A"/>
<path d="M161.1 1.90039L109 54.0004C106.4 111.7 106.6 172.3 109 235.2H281.2C277.8 154.1 277.5 76.0004 281.2 1.90039H161.1Z" fill="white"/>
<path d="M140.832 164.436V174.408L134.244 164.436H132.606V177H134.244V167.01L140.832 177H142.47V164.436H140.832ZM154.982 172.05C154.982 168.936 152.804 166.974 149.996 166.974C147.206 166.974 145.01 168.936 145.01 172.05C145.01 175.182 147.134 177.162 149.924 177.162C152.732 177.162 154.982 175.182 154.982 172.05ZM146.684 172.05C146.684 169.566 148.25 168.396 149.978 168.396C151.67 168.396 153.308 169.566 153.308 172.05C153.308 174.552 151.634 175.722 149.924 175.722C148.214 175.722 146.684 174.552 146.684 172.05ZM162.043 172.05C162.043 175.182 164.041 177.162 166.849 177.162C169.297 177.162 170.899 175.794 171.403 173.832H169.639C169.279 175.074 168.307 175.776 166.849 175.776C165.049 175.776 163.717 174.498 163.717 172.05C163.717 169.638 165.049 168.36 166.849 168.36C168.307 168.36 169.297 169.116 169.639 170.304H171.403C170.899 168.234 169.297 166.974 166.849 166.974C164.041 166.974 162.043 168.954 162.043 172.05ZM183.309 172.05C183.309 168.936 181.131 166.974 178.323 166.974C175.533 166.974 173.337 168.936 173.337 172.05C173.337 175.182 175.461 177.162 178.251 177.162C181.059 177.162 183.309 175.182 183.309 172.05ZM175.011 172.05C175.011 169.566 176.577 168.396 178.305 168.396C179.997 168.396 181.635 169.566 181.635 172.05C181.635 174.552 179.961 175.722 178.251 175.722C176.541 175.722 175.011 174.552 175.011 172.05ZM200.06 177H201.68V171.186C201.68 168.36 199.934 166.956 197.684 166.956C196.172 166.956 194.768 167.73 194.192 169.152C193.544 167.676 192.194 166.956 190.574 166.956C189.278 166.956 188.108 167.514 187.46 168.558V167.136H185.822V177H187.46V171.564C187.46 169.44 188.594 168.378 190.25 168.378C191.87 168.378 192.95 169.404 192.95 171.42V177H194.57V171.564C194.57 169.44 195.704 168.378 197.36 168.378C198.98 168.378 200.06 169.404 200.06 171.42V177ZM206.365 168.954V167.136H204.727V181.68H206.365V175.182C206.977 176.19 208.255 177.162 210.055 177.162C212.701 177.162 214.735 175.092 214.735 172.032C214.735 168.954 212.701 166.974 210.055 166.974C208.255 166.974 206.959 167.91 206.365 168.954ZM213.061 172.032C213.061 174.354 211.531 175.722 209.713 175.722C207.931 175.722 206.365 174.372 206.365 172.05C206.365 169.764 207.931 168.396 209.713 168.396C211.531 168.396 213.061 169.71 213.061 172.032ZM217.251 177H218.889V163.68H217.251V177ZM226.235 168.36C227.927 168.36 229.367 169.422 229.349 171.348H223.121C223.301 169.422 224.633 168.36 226.235 168.36ZM230.843 173.958H229.079C228.719 175.02 227.783 175.776 226.307 175.776C224.633 175.776 223.229 174.678 223.103 172.68H230.987C231.023 172.338 231.041 172.05 231.041 171.69C231.041 168.99 229.169 166.974 226.307 166.974C223.427 166.974 221.429 168.936 221.429 172.05C221.429 175.182 223.499 177.162 226.307 177.162C228.755 177.162 230.339 175.758 230.843 173.958ZM233.923 174.3C233.923 176.28 234.913 177 236.659 177H238.135V175.614H236.929C235.921 175.614 235.561 175.272 235.561 174.3V168.486H238.135V167.136H235.561V164.652H233.923V167.136H232.645V168.486H233.923V174.3ZM244.674 168.36C246.366 168.36 247.806 169.422 247.788 171.348H241.56C241.74 169.422 243.072 168.36 244.674 168.36ZM249.282 173.958H247.518C247.158 175.02 246.222 175.776 244.746 175.776C243.072 175.776 241.668 174.678 241.542 172.68H249.426C249.462 172.338 249.48 172.05 249.48 171.69C249.48 168.99 247.608 166.974 244.746 166.974C241.866 166.974 239.868 168.936 239.868 172.05C239.868 175.182 241.938 177.162 244.746 177.162C247.194 177.162 248.778 175.758 249.282 173.958ZM251.39 172.032C251.39 175.092 253.424 177.162 256.07 177.162C257.87 177.162 259.148 176.244 259.742 175.146V177H261.398V163.68H259.742V168.9C259.058 167.766 257.636 166.974 256.088 166.974C253.424 166.974 251.39 168.954 251.39 172.032ZM259.742 172.05C259.742 174.372 258.194 175.722 256.394 175.722C254.594 175.722 253.064 174.354 253.064 172.032C253.064 169.71 254.594 168.396 256.394 168.396C258.194 168.396 259.742 169.764 259.742 172.05ZM167.568 196.318C167.496 192.79 161.772 194.068 161.772 191.728C161.772 190.936 162.492 190.36 163.698 190.36C165.012 190.36 165.768 191.08 165.84 192.07H167.478C167.37 190.144 165.93 188.974 163.752 188.974C161.556 188.974 160.134 190.216 160.134 191.728C160.134 195.4 165.966 194.122 165.966 196.318C165.966 197.128 165.246 197.776 163.95 197.776C162.564 197.776 161.718 197.056 161.628 196.102H159.936C160.044 197.902 161.664 199.162 163.968 199.162C166.146 199.162 167.568 197.938 167.568 196.318ZM174.434 190.36C176.126 190.36 177.566 191.422 177.548 193.348H171.32C171.5 191.422 172.832 190.36 174.434 190.36ZM179.042 195.958H177.278C176.918 197.02 175.982 197.776 174.506 197.776C172.832 197.776 171.428 196.678 171.302 194.68H179.186C179.222 194.338 179.24 194.05 179.24 193.69C179.24 190.99 177.368 188.974 174.506 188.974C171.626 188.974 169.628 190.936 169.628 194.05C169.628 197.182 171.698 199.162 174.506 199.162C176.954 199.162 178.538 197.758 179.042 195.958ZM183.4 193.636C183.4 191.35 184.588 190.648 186.154 190.648H186.586V188.956C185.02 188.956 183.958 189.64 183.4 190.738V189.136H181.762V199H183.4V193.636ZM187.667 189.136L191.537 199H193.445L197.315 189.136H195.569L192.509 197.488L189.431 189.136H187.667ZM199.287 199H200.925V189.136H199.287V199ZM200.133 187.534C200.727 187.534 201.213 187.048 201.213 186.418C201.213 185.788 200.727 185.302 200.133 185.302C199.503 185.302 199.017 185.788 199.017 186.418C199.017 187.048 199.503 187.534 200.133 187.534ZM203.464 194.05C203.464 197.182 205.462 199.162 208.27 199.162C210.718 199.162 212.32 197.794 212.824 195.832H211.06C210.7 197.074 209.728 197.776 208.27 197.776C206.47 197.776 205.138 196.498 205.138 194.05C205.138 191.638 206.47 190.36 208.27 190.36C209.728 190.36 210.718 191.116 211.06 192.304H212.824C212.32 190.234 210.718 188.974 208.27 188.974C205.462 188.974 203.464 190.954 203.464 194.05ZM219.564 190.36C221.256 190.36 222.696 191.422 222.678 193.348H216.45C216.63 191.422 217.962 190.36 219.564 190.36ZM224.172 195.958H222.408C222.048 197.02 221.112 197.776 219.636 197.776C217.962 197.776 216.558 196.678 216.432 194.68H224.316C224.352 194.338 224.37 194.05 224.37 193.69C224.37 190.99 222.498 188.974 219.636 188.974C216.756 188.974 214.758 190.936 214.758 194.05C214.758 197.182 216.828 199.162 219.636 199.162C222.084 199.162 223.668 197.758 224.172 195.958ZM233.984 196.318C233.912 192.79 228.188 194.068 228.188 191.728C228.188 190.936 228.908 190.36 230.114 190.36C231.428 190.36 232.184 191.08 232.256 192.07H233.894C233.786 190.144 232.346 188.974 230.168 188.974C227.972 188.974 226.55 190.216 226.55 191.728C226.55 195.4 232.382 194.122 232.382 196.318C232.382 197.128 231.662 197.776 230.366 197.776C228.98 197.776 228.134 197.056 228.044 196.102H226.352C226.46 197.902 228.08 199.162 230.384 199.162C232.562 199.162 233.984 197.938 233.984 196.318Z" fill="#023E8A"/>
<path d="M281.2 236.001H109C108.5 236.001 108.1 235.601 108.1 235.101C105.6 169.801 105.6 108.901 108.1 53.8008C108.1 53.6008 108.2 53.4008 108.4 53.2008L160.5 1.10078C160.7 0.900781 160.9 0.800781 161.1 0.800781H281.2C281.4 0.800781 281.7 0.900781 281.8 1.10078C282 1.30078 282.1 1.50078 282 1.80078C278.4 73.1008 278.4 149.401 282 235.001C282 235.201 281.9 235.501 281.8 235.701C281.7 235.901 281.4 236.001 281.2 236.001ZM109.9 234.301H280.3C276.8 149.401 276.8 73.7008 280.3 2.80078H161.5L109.9 54.3008C107.4 109.001 107.4 169.501 109.9 234.301Z" fill="#023E8A"/>
<path d="M250.3 210.4H231.5C231.1 210.4 230.8 210.1 230.8 209.7C230.8 209.3 231.1 209 231.5 209H250.3C250.7 209 251 209.3 251 209.7C251 210.1 250.7 210.4 250.3 210.4Z" fill="#4089E7"/>
<path d="M223.8 210.4H139.9C139.5 210.4 139.2 210.1 139.2 209.7C139.2 209.3 139.5 209 139.9 209H223.8C224.2 209 224.5 209.3 224.5 209.7C224.4 210.1 224.1 210.4 223.8 210.4Z" fill="#4089E7"/>
<path d="M171.2 110.101C171 105.701 168.5 102.301 165.7 102.401C162.8 102.501 160.7 106.101 160.9 110.501C161.1 114.901 163.6 118.301 166.4 118.201C169.2 118.101 171.4 114.501 171.2 110.101Z" fill="#56EBC6"/>
<path d="M231.5 108.7C231.3 104.3 228.8 100.9 226 101C223.1 101.1 221 104.7 221.2 109.1C221.4 113.5 223.9 116.9 226.7 116.8C229.6 116.7 231.7 113.1 231.5 108.7Z" fill="#56EBC6"/>
<path d="M186.2 127.899C202 122.199 214.3 128.899 214.8 129.199C215.4 129.499 215.6 130.299 215.3 130.899C215 131.499 214.2 131.699 213.5 131.399C213.4 131.299 199.1 123.599 182.1 132.399C181.5 132.699 180.7 132.499 180.4 131.899C180.1 131.299 180.3 130.499 180.9 130.199C182.8 129.299 184.5 128.499 186.2 127.899Z" fill="#56EBC6"/>
<path d="M162.5 69.2998C162.9 69.2998 163.4 69.3998 163.8 69.6998C165 70.3998 165.4 71.9998 164.7 73.1998C157.5 85.2998 145.7 85.8998 145.2 85.9998C143.8 86.0998 142.6 84.9998 142.5 83.4998C142.4 82.0998 143.5 80.8998 144.9 80.7998C145.3 80.7998 154.5 80.1998 160.3 70.4998C160.7 69.6998 161.6 69.1998 162.5 69.2998Z" fill="#56EBC6"/>
<path d="M222.9 67.8C223.7 67.6 224.6 67.9 225.2 68.5C233.2 76.5 242.3 74.9 242.7 74.8C244.1 74.5 245.4 75.4 245.7 76.8C246 78.2 245.1 79.5 243.7 79.8C243.2 79.9 231.6 82.1 221.5 72.1C220.5 71.1 220.5 69.5 221.5 68.5C222 68.1 222.5 67.9 222.9 67.8Z" fill="#56EBC6"/>
<path opacity="0.2" d="M278.6 95.8012L271.3 96.5012C268.7 96.7012 266.3 95.0012 265.7 92.4012L255.6 47.0012C255 44.3012 256.7 41.5012 259.4 40.8012L279 35.7012L278.6 95.8012Z" fill="black"/>
<path opacity="0.2" d="M165.9 58.6004C160.8 44.7004 155.7 22.5004 161.1 1.90039L109 54.0004C123.7 58.9004 147.2 61.0004 165.9 58.6004Z" fill="black"/>
<path d="M161.1 54.0004C155.4 37.1004 157.7 14.2004 161.1 1.90039L109 54.0004C124.8 56.8004 142.4 56.4004 161.1 54.0004Z" fill="white"/>
<path d="M132.8 56.8003C124.1 56.8003 116.2 56.1003 108.8 54.8003C108.5 54.7003 108.2 54.5003 108.1 54.2003C108 53.9003 108.1 53.5003 108.3 53.3003L160.4 1.20033C160.7 0.900325 161.1 0.900325 161.5 1.10033C161.9 1.30033 162 1.70033 161.9 2.10033C158.8 13.5003 156.2 36.7003 161.9 53.6003C162 53.9003 162 54.1003 161.8 54.4003C161.7 54.6003 161.4 54.8003 161.2 54.8003C150.9 56.2003 141.5 56.8003 132.8 56.8003ZM110.9 53.4003C124.7 55.7003 140.8 55.6003 159.9 53.2003C155.2 38.3003 156.3 18.5003 159.4 4.80033L110.9 53.4003Z" fill="#023E8A"/>
</svg>
