<svg width="408" height="330" viewBox="0 0 408 330" fill="none" xmlns="http://www.w3.org/2000/svg">
<g filter="url(#filter0_f_43_4941)">
<path d="M203.9 319.6C310.988 319.6 397.8 314.541 397.8 308.3C397.8 302.059 310.988 297 203.9 297C96.812 297 10 302.059 10 308.3C10 314.541 96.812 319.6 203.9 319.6Z" fill="black" fill-opacity="0.05"/>
</g>
<path d="M327.5 154C327.4 154 327.3 154 327.1 154C300.5 151.8 282.1 129.1 281.4 128.1C279.9 126.2 280.2 123.4 282.1 121.8C284 120.3 286.8 120.6 288.4 122.5C288.6 122.8 304.3 142.1 326 144.9C333 137.9 339 119.4 338.3 113.8C338.3 113.7 338.3 113.7 338.3 113.6C338.2 111.8 337.8 105.6 339.6 102C340.7 99.8 343.3 98.8 345.6 99.9C347.8 101 348.8 103.6 347.7 105.9C347.3 106.8 347.1 110.1 347.3 112.9C348.3 122.1 340.3 145.3 330.3 153.1C329.4 153.6 328.5 154 327.5 154Z" fill="#023E8A"/>
<path d="M115.7 129.7C107.8 129.7 85.3 127.8 67.1 107.4C65.7 105.8 65.6 103.5 66.8 101.8C74 92.0999 86.8 69.1999 88.7 61.6999C87.9 60.2999 86.4 58.1999 84.6 57.3999C83.2 56.6999 82.2 55.3999 82.1 53.7999L81.4 46.4999C81.2 43.9999 83 41.8999 85.4 41.5999C87.9 41.3999 90 43.0999 90.3 45.5999L90.8 50.6999C95.2 53.7999 97.3 58.6999 97.6 59.2999C97.9 59.9999 98 60.7999 97.9 61.5999C97 69.4999 84.1 92.4999 76.2 104.1C94.7 122.5 116.8 120.8 117.8 120.8C120.2 120.6 122.4 122.4 122.6 124.8C122.8 127.3 121 129.4 118.6 129.6C118.4 129.6 117.4 129.7 115.7 129.7Z" fill="#023E8A"/>
<path d="M259.7 307H247.7C246.3 307 245 306.3 244.1 305.2C243.3 304.1 243 302.6 243.4 301.3C246.5 290.1 248.1 280.9 249.2 266.6C245 246.7 241 228.4 240.9 228.2C240.4 225.8 241.9 223.4 244.3 222.9C246.7 222.4 249.1 223.9 249.6 226.3C249.6 226.5 253.7 245.2 258 265.4C258.1 265.8 258.1 266.3 258.1 266.7C257.1 279.6 255.8 288.5 253.4 298.1H259.6C262.1 298.1 264.1 300.1 264.1 302.6C264.1 305.1 262.2 307 259.7 307Z" fill="#023E8A"/>
<path d="M167.2 307H160.4C159.1 307 157.9 306.4 157 305.5C156.2 304.5 155.8 303.2 155.9 302C157 293.8 162.9 278.9 169.2 263.9C171.4 244.1 173.3 227.1 173.3 226.9C173.6 224.4 175.8 222.7 178.2 222.9C180.7 223.2 182.4 225.4 182.2 227.8C182.2 228 180.3 245.4 178 265.5C178 265.9 177.8 266.3 177.7 266.7C173.3 277.3 168.2 289.8 165.9 298.1H167.1C169.6 298.1 171.6 300.1 171.6 302.6C171.6 305.1 169.7 307 167.2 307Z" fill="#023E8A"/>
<path d="M171.1 1.8999L119 53.9999C116.4 111.7 116.6 172.3 119 235.2H291.2C287.8 154.1 287.5 75.9999 291.2 1.8999H171.1Z" fill="white"/>
<path d="M179.742 164.436V174.408L173.154 164.436H171.516V177H173.154V167.01L179.742 177H181.38V164.436H179.742ZM193.892 172.05C193.892 168.936 191.714 166.974 188.906 166.974C186.116 166.974 183.92 168.936 183.92 172.05C183.92 175.182 186.044 177.162 188.834 177.162C191.642 177.162 193.892 175.182 193.892 172.05ZM185.594 172.05C185.594 169.566 187.16 168.396 188.888 168.396C190.58 168.396 192.218 169.566 192.218 172.05C192.218 174.552 190.544 175.722 188.834 175.722C187.124 175.722 185.594 174.552 185.594 172.05ZM205.471 164.454H201.565V177H205.471C209.593 177 212.131 174.642 212.131 170.754C212.131 166.866 209.593 164.454 205.471 164.454ZM203.203 175.65V165.786H205.471C208.747 165.786 210.457 167.694 210.457 170.754C210.457 173.814 208.747 175.65 205.471 175.65H203.203ZM214.039 172.032C214.039 175.092 216.073 177.162 218.701 177.162C220.519 177.162 221.797 176.226 222.391 175.164V177H224.047V167.136H222.391V168.936C221.815 167.91 220.555 166.974 218.719 166.974C216.073 166.974 214.039 168.954 214.039 172.032ZM222.391 172.05C222.391 174.372 220.843 175.722 219.043 175.722C217.243 175.722 215.713 174.354 215.713 172.032C215.713 169.71 217.243 168.396 219.043 168.396C220.843 168.396 222.391 169.764 222.391 172.05ZM227.535 174.3C227.535 176.28 228.525 177 230.271 177H231.747V175.614H230.541C229.533 175.614 229.173 175.272 229.173 174.3V168.486H231.747V167.136H229.173V164.652H227.535V167.136H226.257V168.486H227.535V174.3ZM233.48 172.032C233.48 175.092 235.514 177.162 238.142 177.162C239.96 177.162 241.238 176.226 241.832 175.164V177H243.488V167.136H241.832V168.936C241.256 167.91 239.996 166.974 238.16 166.974C235.514 166.974 233.48 168.954 233.48 172.032ZM241.832 172.05C241.832 174.372 240.284 175.722 238.484 175.722C236.684 175.722 235.154 174.354 235.154 172.032C235.154 169.71 236.684 168.396 238.484 168.396C240.284 168.396 241.832 169.764 241.832 172.05ZM174.289 199H176.017L171.499 186.526H169.609L165.073 199H166.801L167.809 196.21H173.281L174.289 199ZM172.813 194.878H168.277L170.545 188.542L172.813 194.878ZM177.184 189.136L181.054 199H182.962L186.832 189.136H185.086L182.026 197.488L178.948 189.136H177.184ZM188.192 194.032C188.192 197.092 190.226 199.162 192.854 199.162C194.672 199.162 195.95 198.226 196.544 197.164V199H198.2V189.136H196.544V190.936C195.968 189.91 194.708 188.974 192.872 188.974C190.226 188.974 188.192 190.954 188.192 194.032ZM196.544 194.05C196.544 196.372 194.996 197.722 193.196 197.722C191.396 197.722 189.866 196.354 189.866 194.032C189.866 191.71 191.396 190.396 193.196 190.396C194.996 190.396 196.544 191.764 196.544 194.05ZM201.328 199H202.966V189.136H201.328V199ZM202.174 187.534C202.768 187.534 203.254 187.048 203.254 186.418C203.254 185.788 202.768 185.302 202.174 185.302C201.544 185.302 201.058 185.788 201.058 186.418C201.058 187.048 201.544 187.534 202.174 187.534ZM206.117 199H207.755V185.68H206.117V199ZM210.295 194.032C210.295 197.092 212.329 199.162 214.957 199.162C216.775 199.162 218.053 198.226 218.647 197.164V199H220.303V189.136H218.647V190.936C218.071 189.91 216.811 188.974 214.975 188.974C212.329 188.974 210.295 190.954 210.295 194.032ZM218.647 194.05C218.647 196.372 217.099 197.722 215.299 197.722C213.499 197.722 211.969 196.354 211.969 194.032C211.969 191.71 213.499 190.396 215.299 190.396C217.099 190.396 218.647 191.764 218.647 194.05ZM225.069 190.972V185.68H223.431V199H225.069V197.182C225.681 198.262 226.959 199.162 228.759 199.162C231.405 199.162 233.439 197.092 233.439 194.032C233.439 190.954 231.423 188.974 228.759 188.974C227.013 188.974 225.699 189.874 225.069 190.972ZM231.765 194.032C231.765 196.354 230.235 197.722 228.417 197.722C226.635 197.722 225.069 196.372 225.069 194.05C225.069 191.764 226.635 190.396 228.417 190.396C230.235 190.396 231.765 191.71 231.765 194.032ZM235.955 199H237.593V185.68H235.955V199ZM244.939 190.36C246.631 190.36 248.071 191.422 248.053 193.348H241.825C242.005 191.422 243.337 190.36 244.939 190.36ZM249.547 195.958H247.783C247.423 197.02 246.487 197.776 245.011 197.776C243.337 197.776 241.933 196.678 241.807 194.68H249.691C249.727 194.338 249.745 194.05 249.745 193.69C249.745 190.99 247.873 188.974 245.011 188.974C242.131 188.974 240.133 190.936 240.133 194.05C240.133 197.182 242.203 199.162 245.011 199.162C247.459 199.162 249.043 197.758 249.547 195.958Z" fill="#023E8A"/>
<path d="M291.2 236H119C118.5 236 118.1 235.6 118.1 235.1C115.6 169.8 115.6 108.9 118.1 53.7998C118.1 53.5998 118.2 53.3998 118.4 53.1998L170.5 1.0998C170.7 0.899805 170.9 0.799805 171.1 0.799805H291.2C291.4 0.799805 291.7 0.899805 291.8 1.0998C292 1.2998 292.1 1.4998 292 1.7998C288.4 73.0998 288.4 149.4 292 235C292 235.2 291.9 235.5 291.8 235.7C291.7 235.9 291.4 236 291.2 236ZM119.9 234.3H290.3C286.8 149.4 286.8 73.6998 290.3 2.7998H171.5L119.9 54.2998C117.4 109 117.4 169.5 119.9 234.3Z" fill="#023E8A"/>
<path d="M260.3 210.4H241.5C241.1 210.4 240.8 210.1 240.8 209.7C240.8 209.3 241.1 209 241.5 209H260.3C260.7 209 261 209.3 261 209.7C261 210.1 260.7 210.4 260.3 210.4Z" fill="#4089E7"/>
<path d="M233.8 210.4H149.9C149.5 210.4 149.2 210.1 149.2 209.7C149.2 209.3 149.5 209 149.9 209H233.8C234.2 209 234.5 209.3 234.5 209.7C234.4 210.1 234.1 210.4 233.8 210.4Z" fill="#4089E7"/>
<path d="M181.2 110.1C181 105.7 178.5 102.3 175.7 102.4C172.8 102.5 170.7 106.1 170.9 110.5C171.1 114.9 173.6 118.3 176.4 118.2C179.2 118.1 181.4 114.5 181.2 110.1Z" fill="#56EBC6"/>
<path d="M241.5 108.7C241.3 104.3 238.8 100.9 236 101C233.1 101.1 231 104.7 231.2 109.1C231.4 113.5 233.9 116.9 236.7 116.8C239.6 116.7 241.7 113.1 241.5 108.7Z" fill="#56EBC6"/>
<path d="M196.2 127.9C212 122.2 224.3 128.9 224.8 129.2C225.4 129.5 225.6 130.3 225.3 130.9C225 131.5 224.2 131.7 223.5 131.4C223.4 131.3 209.1 123.6 192.1 132.4C191.5 132.7 190.7 132.5 190.4 131.9C190.1 131.3 190.3 130.5 190.9 130.2C192.8 129.3 194.5 128.5 196.2 127.9Z" fill="#56EBC6"/>
<path d="M172.5 69.2998C172.9 69.2998 173.4 69.3998 173.8 69.6998C175 70.3998 175.4 71.9998 174.7 73.1998C167.5 85.2998 155.7 85.8998 155.2 85.9998C153.8 86.0998 152.6 84.9998 152.5 83.4998C152.4 82.0998 153.5 80.8998 154.9 80.7998C155.3 80.7998 164.5 80.1998 170.3 70.4998C170.7 69.6998 171.6 69.1998 172.5 69.2998Z" fill="#56EBC6"/>
<path d="M232.9 67.8C233.7 67.6 234.6 67.9 235.2 68.5C243.2 76.5 252.3 74.9 252.7 74.8C254.1 74.5 255.4 75.4 255.7 76.8C256 78.2 255.1 79.5 253.7 79.8C253.2 79.9 241.6 82.1 231.5 72.1C230.5 71.1 230.5 69.5 231.5 68.5C232 68.1 232.5 67.9 232.9 67.8Z" fill="#56EBC6"/>
<path opacity="0.2" d="M288.6 95.7997L281.3 96.4997C278.7 96.6997 276.3 94.9997 275.7 92.3997L265.6 46.9997C265 44.2997 266.7 41.4997 269.4 40.7997L289 35.6997L288.6 95.7997Z" fill="black"/>
<path opacity="0.2" d="M175.9 58.5999C170.8 44.6999 165.7 22.4999 171.1 1.8999L119 53.9999C133.7 58.8999 157.2 60.9999 175.9 58.5999Z" fill="black"/>
<path d="M171.1 53.9999C165.4 37.0999 167.7 14.1999 171.1 1.8999L119 53.9999C134.8 56.7999 152.4 56.3999 171.1 53.9999Z" fill="white"/>
<path d="M142.8 56.7998C134.1 56.7998 126.2 56.0998 118.8 54.7998C118.5 54.6998 118.2 54.4998 118.1 54.1998C118 53.8998 118.1 53.4998 118.3 53.2998L170.4 1.19984C170.7 0.899837 171.1 0.899837 171.5 1.09984C171.9 1.29984 172 1.69984 171.9 2.09984C168.8 13.4998 166.2 36.6998 171.9 53.5998C172 53.8998 172 54.0998 171.8 54.3998C171.7 54.5998 171.4 54.7998 171.2 54.7998C160.9 56.1998 151.5 56.7998 142.8 56.7998ZM120.9 53.3998C134.7 55.6998 150.8 55.5998 169.9 53.1998C165.2 38.2998 166.3 18.4998 169.4 4.79984L120.9 53.3998Z" fill="#023E8A"/>
<defs>
<filter id="filter0_f_43_4941" x="0" y="287" width="407.8" height="42.6001" filterUnits="userSpaceOnUse" color-interpolation-filters="sRGB">
<feFlood flood-opacity="0" result="BackgroundImageFix"/>
<feBlend mode="normal" in="SourceGraphic" in2="BackgroundImageFix" result="shape"/>
<feGaussianBlur stdDeviation="5" result="effect1_foregroundBlur_43_4941"/>
</filter>
</defs>
</svg>
