<svg width="24" height="24" viewBox="0 0 24 24" fill="none" xmlns="http://www.w3.org/2000/svg">
<path d="M19.5 16.8182H18.6363V9.9091C18.6363 6.0996 15.5367 3 11.7272 3C7.91771 3 4.81811 6.0996 4.81811 9.9091V16.8182H3.95447C3.47687 16.8182 3.09082 17.2042 3.09082 17.6818C3.09082 18.1594 3.47687 18.5455 3.95447 18.5455H4.81811H8.27266C8.27266 20.4506 9.82201 22 11.7272 22C13.6324 22 15.1818 20.4506 15.1818 18.5455H18.6363H19.5C19.9776 18.5455 20.3636 18.1594 20.3636 17.6818C20.3636 17.2042 19.9775 16.8182 19.5 16.8182ZM11.7272 20.2727C10.7746 20.2727 9.99995 19.498 9.99995 18.5455H13.4545C13.4545 19.498 12.6798 20.2727 11.7272 20.2727ZM16.909 16.8182H15.1818H8.27266H6.54541V9.9091C6.54541 7.05134 8.86945 4.72729 11.7272 4.72729C14.585 4.72729 16.909 7.05134 16.909 9.9091V16.8182Z" fill="#023E8A"/>
<circle cx="16" cy="5" r="3" fill="#4089E7"/>
</svg>
