<svg width="18" height="18" viewBox="0 0 18 18" fill="none" xmlns="http://www.w3.org/2000/svg">
<path d="M6.93318 15.617C6.7467 15.617 6.56786 15.543 6.436 15.4111C6.30413 15.2792 6.23005 15.1004 6.23005 14.9139V3.08594C6.23005 2.89946 6.30413 2.72061 6.436 2.58875C6.56786 2.45689 6.7467 2.38281 6.93318 2.38281C7.11966 2.38281 7.2985 2.45689 7.43036 2.58875C7.56223 2.72061 7.6363 2.89946 7.6363 3.08594V14.9139C7.6363 15.1004 7.56223 15.2792 7.43036 15.4111C7.2985 15.543 7.11966 15.617 6.93318 15.617ZM11.0528 15.617C10.8663 15.617 10.6875 15.543 10.5556 15.4111C10.4237 15.2792 10.3497 15.1004 10.3497 14.9139V3.08594C10.3497 2.89946 10.4237 2.72061 10.5556 2.58875C10.6875 2.45689 10.8663 2.38281 11.0528 2.38281C11.2393 2.38281 11.4181 2.45689 11.55 2.58875C11.6818 2.72061 11.7559 2.89946 11.7559 3.08594V14.9139C11.7559 15.1004 11.6818 15.2792 11.55 15.4111C11.4181 15.543 11.2393 15.617 11.0528 15.617ZM2.65712 11.8711C2.56339 11.8713 2.47056 11.8527 2.3841 11.8165C2.29764 11.7803 2.2193 11.7271 2.15369 11.6602L0.311851 9.77055C0.11241 9.56358 0.000976563 9.28735 0.000976562 8.99992C0.000976562 8.7125 0.11241 8.43627 0.311851 8.2293L2.15369 6.3407C2.28448 6.20987 2.46156 6.13585 2.64655 6.13469C2.83154 6.13353 3.00953 6.20532 3.14195 6.3345C3.27437 6.46368 3.35054 6.63985 3.35396 6.82481C3.35738 7.00977 3.28777 7.18863 3.16021 7.32262L1.52474 8.99992L3.16021 10.6772C3.25719 10.7762 3.32278 10.9016 3.34875 11.0377C3.37471 11.1737 3.35989 11.3145 3.30614 11.4422C3.2524 11.5699 3.16212 11.6788 3.04666 11.7554C2.93119 11.832 2.79567 11.8727 2.65712 11.8725V11.8711Z" fill="#56EBC6"/>
<path d="M6.93328 9.70297H0.890625C0.704145 9.70297 0.525302 9.62889 0.393441 9.49703C0.261579 9.36517 0.1875 9.18632 0.1875 8.99984C0.1875 8.81336 0.261579 8.63452 0.393441 8.50266C0.525302 8.3708 0.704145 8.29672 0.890625 8.29672H6.93328C7.11976 8.29672 7.2986 8.3708 7.43047 8.50266C7.56233 8.63452 7.63641 8.81336 7.63641 8.99984C7.63641 9.18632 7.56233 9.36517 7.43047 9.49703C7.2986 9.62889 7.11976 9.70297 6.93328 9.70297ZM15.3423 11.8711C15.2038 11.8712 15.0682 11.8305 14.9528 11.7539C14.8373 11.6774 14.747 11.5684 14.6933 11.4407C14.6395 11.313 14.6247 11.1723 14.6507 11.0362C14.6766 10.9001 14.7422 10.7747 14.8392 10.6757L16.4747 8.99984L14.8392 7.32254C14.7734 7.25672 14.7214 7.17851 14.686 7.09242C14.6507 7.00633 14.6328 6.91408 14.6334 6.82103C14.634 6.72797 14.653 6.63596 14.6894 6.55032C14.7258 6.46468 14.7789 6.38712 14.8455 6.32214C14.9121 6.25716 14.991 6.20604 15.0775 6.17176C15.164 6.13748 15.2564 6.12072 15.3495 6.12243C15.4425 6.12415 15.5343 6.14433 15.6195 6.18178C15.7047 6.21923 15.7816 6.27322 15.8457 6.34062L17.6876 8.22922C17.887 8.43619 17.9985 8.71242 17.9985 8.99984C17.9985 9.28727 17.887 9.5635 17.6876 9.77047L15.8457 11.6591C15.7803 11.7263 15.702 11.7797 15.6155 11.8161C15.529 11.8525 15.4361 11.8712 15.3423 11.8711Z" fill="#56EBC6"/>
<path d="M17.1088 9.70312H11.0527C10.8663 9.70312 10.6874 9.62905 10.5556 9.49718C10.4237 9.36532 10.3496 9.18648 10.3496 9C10.3496 8.81352 10.4237 8.63468 10.5556 8.50282C10.6874 8.37095 10.8663 8.29688 11.0527 8.29688H17.1088C17.2952 8.29688 17.4741 8.37095 17.6059 8.50282C17.7378 8.63468 17.8119 8.81352 17.8119 9C17.8119 9.18648 17.7378 9.36532 17.6059 9.49718C17.4741 9.62905 17.2952 9.70312 17.1088 9.70312Z" fill="#56EBC6"/>
</svg>
