<svg width="24" height="24" viewBox="0 0 24 24" fill="none" xmlns="http://www.w3.org/2000/svg">
<path fill-rule="evenodd" clip-rule="evenodd" d="M7.68618 16.888C7.91886 16.888 8.15154 16.9175 8.37914 16.9784C9.066 17.1633 9.66243 17.6226 10.016 18.2394C10.2456 18.6265 10.3727 19.0786 10.3767 19.5399C10.3767 20.2004 10.9071 20.7297 11.5594 20.7297H12.8326C13.4818 20.7297 14.0122 20.2034 14.0153 19.5541C14.0112 18.8368 14.2916 18.155 14.8047 17.6419C15.3107 17.1359 16.0179 16.8321 16.7251 16.8524C17.1884 16.8636 17.6345 16.9886 18.0277 17.2121C18.5936 17.5362 19.3161 17.3432 19.6432 16.7844L20.3179 15.6596C20.4683 15.4005 20.512 15.0753 20.4317 14.7756C20.3525 14.4759 20.1533 14.2157 19.8851 14.0623C19.2571 13.7006 18.8091 13.1174 18.6231 12.4183C18.4392 11.7325 18.5398 10.9836 18.8985 10.3669C19.1322 9.96045 19.4746 9.61804 19.8851 9.38231C20.4358 9.06022 20.6288 8.33983 20.3088 7.77896C20.2956 7.75661 20.2834 7.73324 20.2732 7.70885L19.6778 6.67653C19.3537 6.11261 18.6323 5.91854 18.0663 6.24064C17.4546 6.60236 16.7271 6.70599 16.0281 6.52209C15.33 6.34123 14.7448 5.89924 14.38 5.27537C14.1463 4.8852 14.0193 4.43102 14.0153 3.96871C14.0244 3.62122 13.9025 3.30929 13.681 3.08067C13.4605 2.85307 13.1506 2.72403 12.8326 2.72403H11.5594C11.2444 2.72403 10.9498 2.84698 10.7273 3.06848C10.5058 3.291 10.3849 3.58667 10.3869 3.90165C10.3655 5.38714 9.15135 6.58305 7.6811 6.58305C7.20964 6.57797 6.75546 6.45096 6.36123 6.21524C5.80747 5.90025 5.08403 6.09432 4.75991 6.65824L4.07203 7.78912C3.75705 8.33576 3.9501 9.05819 4.51097 9.38435C5.34313 9.86596 5.86234 10.7642 5.86234 11.7274C5.86234 12.6906 5.34313 13.5878 4.50894 14.0704C3.95112 14.3936 3.75807 15.1119 4.08118 15.6707L4.72231 16.7762C4.88082 17.0617 5.13992 17.268 5.43966 17.3523C5.73838 17.4357 6.06758 17.4001 6.34192 17.2477C6.7453 17.0109 7.21472 16.888 7.68618 16.888ZM12.8327 22.2539H11.5595C10.0669 22.2539 8.85273 21.0407 8.85273 19.5481C8.8507 19.3642 8.79787 19.1731 8.69931 19.0075C8.53979 18.7291 8.28171 18.53 7.984 18.4507C7.68832 18.3715 7.3642 18.4152 7.09799 18.5696C6.4599 18.9252 5.70903 19.0116 5.02217 18.8185C4.33632 18.6245 3.74395 18.153 3.39646 17.5281L2.76142 16.4338C2.01867 15.1455 2.46066 13.4944 3.747 12.7506C4.11177 12.5403 4.33835 12.1481 4.33835 11.7274C4.33835 11.3068 4.11177 10.9135 3.747 10.7032C2.45965 9.95539 2.01867 8.30022 2.7604 7.01185L3.4493 5.88097C4.18188 4.60682 5.83807 4.15772 7.12949 4.89945C7.30527 5.0041 7.49629 5.05694 7.69035 5.05897C8.32336 5.05897 8.85273 4.53671 8.8629 3.89456C8.85883 3.18636 9.13825 2.50661 9.6473 1.9935C10.1584 1.4814 10.8371 1.19995 11.5595 1.19995H12.8327C13.5602 1.19995 14.2674 1.49867 14.7744 2.01788C15.2804 2.54014 15.5598 3.25647 15.5384 3.98296C15.5405 4.14654 15.5943 4.33553 15.6919 4.50115C15.8534 4.77549 16.1085 4.96854 16.4112 5.04779C16.714 5.12298 17.031 5.08234 17.3003 4.92282C18.6009 4.18007 20.256 4.62511 20.9988 5.91551L21.6318 7.01185C21.6481 7.04131 21.6623 7.06977 21.6745 7.09923C22.3471 8.37033 21.898 9.97063 20.6482 10.7012C20.4664 10.8058 20.319 10.9522 20.2174 11.1289C20.0599 11.4023 20.0163 11.7274 20.0955 12.0261C20.1768 12.331 20.3709 12.584 20.6442 12.7404C21.2609 13.095 21.7212 13.6925 21.9051 14.3824C22.089 15.0713 21.9884 15.8191 21.6298 16.4359L20.9551 17.5596C20.2124 18.8358 18.5572 19.2778 17.2698 18.534C17.0981 18.4355 16.9 18.3816 16.7029 18.3765H16.6968C16.4031 18.3765 16.1013 18.5015 15.8819 18.72C15.6594 18.9425 15.5374 19.2392 15.5395 19.5542C15.5324 21.0468 14.3182 22.2539 12.8327 22.2539Z" fill="#023E8A"/>
<path fill-rule="evenodd" clip-rule="evenodd" d="M12.2001 9.81019C11.1434 9.81019 10.2838 10.6708 10.2838 11.7275C10.2838 12.7842 11.1434 13.6428 12.2001 13.6428C13.2568 13.6428 14.1164 12.7842 14.1164 11.7275C14.1164 10.6708 13.2568 9.81019 12.2001 9.81019ZM12.2002 15.1669C10.3032 15.1669 8.75977 13.6245 8.75977 11.7275C8.75977 9.83055 10.3032 8.28613 12.2002 8.28613C14.0972 8.28613 15.6406 9.83055 15.6406 11.7275C15.6406 13.6245 14.0972 15.1669 12.2002 15.1669Z" fill="#023E8A"/>
</svg>
